<svg width="16" height="16" viewBox="0 0 16 16" fill="none" xmlns="http://www.w3.org/2000/svg">
<path d="M11.0004 12L4.00037 12.5L4.83319 11.5584L8.32275 6.92339L10.0372 9.19936L10.4779 8.615L13.0004 5.5L11.0004 12Z" fill="#009486"/>
<path d="M11.4779 8.61497L10.0372 9.19933L8.32276 6.92335L4.83321 11.5584L3.50037 12.5L0.322021 6.92335L5.78005 1L11.4779 8.61497Z" fill="#DF9000"/>
<path d="M9.00037 0.5L4.50037 3L6.11763 4.94682L4.08462 6.70157L6.11763 8.1145L2.6991 9.9357L2.50037 10.5L5.00037 12.5L9.50037 6.70157L11.0371 9.19933L13.5004 6.70157L9.00037 0.5Z" fill="#C35100"/>
<path d="M7.16459 8.1189L7.96947 9.125H6.35971L7.16459 8.1189ZM7.16459 8.1189L6.35971 7.1128M7.16459 8.1189H5.55483L6.35971 7.1128M7.16459 8.1189H8.77435L7.96947 7.1128M7.16459 8.1189L7.96947 7.1128M6.35971 7.1128L5.55483 6.10671L4.74996 7.1128H6.35971ZM7.96947 7.1128H9.57922L8.77435 6.10671L7.96947 7.1128ZM7.16459 7.0122L7.96947 6.0061L7.16459 5L6.35971 6.0061L7.16459 7.0122Z" stroke="#BEBEBE" stroke-width="0.20122"/>
<path d="M14.5781 14.5068L14.5 14.585L12.6133 12.6982C12.6412 12.6708 12.6688 12.6431 12.6963 12.6152L14.5781 14.5068ZM7 1C10.3137 1 13 3.68629 13 7C13 8.09423 12.707 9.11773 12.1963 10H11.2959L10 11.2959V12.1963C9.11773 12.707 8.09423 13 7 13C3.68629 13 1 10.3137 1 7C1 3.68629 3.68629 1 7 1Z" stroke="#BEBEBE" stroke-width="2"/>
</svg>
