<svg width="963" height="116" viewBox="0 0 963 116" fill="none" xmlns="http://www.w3.org/2000/svg">
<path d="M30.06 111.94C35.02 110.5 36.46 106.82 36.46 93.7V7.73999L28.06 7.41998C13.66 7.41998 7.98003 8.42 2.54003 19.94L0.780029 19.62L1.74003 2.02002H84.14L85.1 19.62L83.34 19.94C77.9 8.42 72.1 7.41998 57.7 7.41998L49.74 7.58002V93.7C49.74 106.82 51.18 110.5 56.14 111.94V114.02H30.06V111.94Z" fill="white"/>
<path d="M108.79 114.01V111.93C113.59 110.49 115.19 106.81 115.19 93.69V22.33C115.19 9.21002 113.59 5.53003 108.79 4.09003V2.01001H183.19L184.95 22.81L183.19 23.29C177.59 9.20998 168.05 6.71002 151.72 6.71002H128.3V52.89H148.78C167.02 52.89 171.66 49.21 173.58 42.01H175.5V66.17H173.58C171.66 58.97 167.02 55.29 148.78 55.29H128.3V104.41C128.3 109.05 130.86 111.61 135.5 111.61H156.3C171.66 111.61 181.42 107.29 187.18 92.41L188.94 92.73L187.66 114.01H108.78H108.79Z" fill="white"/>
<path d="M307.02 114.02C304.62 114.82 300.46 115.14 297.26 115.14C284.94 115.14 282.38 106.18 275.34 89.54C266.06 67.46 265.05 58.58 245.85 58.58H235.34V93.7C235.34 106.82 236.78 110.5 241.74 111.94V114.02H215.82V111.94C220.62 110.5 222.22 106.82 222.22 93.7V22.34C222.22 9.22003 220.62 5.53998 215.82 4.09998V2.02002H247.34C279.82 2.02002 289.42 12.74 289.42 26.98C289.42 42.02 278.54 53.38 257.74 55.78C277.42 58.34 281.97 67.58 288.14 87.78C292.04 100.54 299.87 111.58 303.96 112.82M275.82 30.66C275.82 16.42 266.2 6.64001 242.52 6.64001L235.31 6.85999L235.34 53.86H248.78C267.18 53.86 275.82 44.26 275.82 30.66Z" fill="white"/>
<path d="M315.65 111.94C320.13 110.5 324.78 97.26 326.03 94.16L357.92 16.73C359.04 13.85 361.57 12.09 360.29 9.53003L358.85 6.16998L370.85 0.72998L410.21 95.29C415.17 107.29 419.01 110.49 422.37 111.93V114.01H397.57V111.93C402.53 110.49 401.25 107.29 396.13 95.29L386.37 71.77H341.25L331.81 95.13C327.65 105.53 328.13 110.81 333.73 111.93V114.01H315.65V111.93V111.94ZM384.74 67.77L363.49 16.74L342.57 67.57L384.74 67.78V67.77Z" fill="white"/>
<path d="M855.49 111.94C859.97 110.5 864.62 97.26 865.87 94.16L897.76 16.73C898.88 13.85 901.41 12.09 900.13 9.53003L898.69 6.16998L910.69 0.72998L950.05 95.29C955.01 107.29 958.85 110.49 962.21 111.93V114.01H937.41V111.93C942.37 110.49 941.09 107.29 935.97 95.29L926.21 71.77H881.09L871.65 95.13C867.49 105.53 867.97 110.81 873.57 111.93V114.01H855.49V111.93V111.94ZM924.59 67.77L903.34 16.74L882.42 67.57L924.59 67.78V67.77Z" fill="white"/>
<path d="M451.03 17.21V87.29C451.16 111.2 454.87 110.01 462.07 111.93V114.01H442.07V111.93C446.87 110.49 446.1 106.42 446.1 93.3L445.72 21.59C445.72 8.47003 446.55 5.52002 440.15 4.08002V2H455.83L523.51 89.66L523.18 27.05C523.18 8.80999 521.9 6.00002 514.7 4.08002V2H534.86V4.08002C529.9 5.52002 528.46 9.20001 528.46 22.32V115.28H526.38L451.02 17.2L451.03 17.21Z" fill="white"/>
<path d="M755.17 17.21V87.29C755.3 111.2 759.01 110.01 766.21 111.93V114.01H746.21V111.93C751.01 110.49 750.24 106.42 750.24 93.3L749.86 21.59C749.86 8.47003 750.69 5.52002 744.29 4.08002V2H759.97L827.65 89.66L827.32 27.05C827.32 8.80999 826.04 6.00002 818.84 4.08002V2H839V4.08002C834.04 5.52002 832.6 9.20001 832.6 22.32V115.28H830.52L755.16 17.2L755.17 17.21Z" fill="white"/>
<path d="M562.22 114.02V111.94C567.02 110.5 568.62 106.82 568.62 93.7V22.34C568.62 9.22003 567.02 5.53998 562.22 4.09998V2.02002H600.46C644.46 2.02002 661.74 30.02 661.9 55.94C662.06 89.7 639.34 114.02 604.14 114.02H562.22ZM647.34 62.34C647.34 30.34 627.8 8.32001 592.12 8.32001L581.74 8.58002V99.94C581.74 107.46 583.34 111.62 592.14 111.62H603.82C631.82 111.62 647.34 95.78 647.34 62.34Z" fill="white"/>
<path d="M691.05 111.94C695.85 110.5 697.45 106.82 697.45 93.7V22.34C697.45 9.22003 695.85 5.53998 691.05 4.09998V2.02002H716.97V4.09998C712.01 5.53998 710.57 9.22003 710.57 22.34V93.7C710.57 106.82 712.01 110.5 716.97 111.94V114.02H691.05V111.94Z" fill="white"/>
</svg>
